<?xml version="1.0" encoding="utf-8"?>
<!-- Generator: Adobe Illustrator 16.0.0, SVG Export Plug-In . SVG Version: 6.00 Build 0)  -->
<!DOCTYPE svg PUBLIC "-//W3C//DTD SVG 1.1//EN" "http://www.w3.org/Graphics/SVG/1.1/DTD/svg11.dtd">
<svg version="1.1" id="Layer_1" xmlns="http://www.w3.org/2000/svg" xmlns:xlink="http://www.w3.org/1999/xlink" x="0px" y="0px"
	 width="250px" height="250px" viewBox="0 0 250 250" enable-background="new 0 0 250 250" xml:space="preserve">
<g>
	<path d="M121.79,27.634h7.133c21.638,0,42.681,8.797,63.128,26.39c20.211,20.688,30.315,44.348,30.315,70.977
		c0,30.197-12.721,55.996-38.162,77.394c-18.547,13.316-38.401,19.973-59.562,19.973c-27.82,0-52.191-11.055-73.115-33.168
		c-15.931-19.732-23.896-39.827-23.896-60.276v-7.132c0-24.253,9.986-46.842,29.959-67.767c0.476,0,2.972-2.141,7.489-6.417
		C83.865,34.29,102.768,27.634,121.79,27.634z"/>
	<path fill="#FFFFFF" d="M32.27,125c0,26.393,10.342,49.336,31.028,68.837c18.309,15.688,38.638,23.537,60.989,23.537h1.07
		c28.295,0,52.428-11.889,72.401-35.666c13.078-17.12,19.616-35.901,19.616-56.351v-1.073c0-24.249-9.035-45.887-27.105-64.911
		c-19.021-18.068-40.896-27.104-65.625-27.104c-28.532,0-52.667,11.771-72.401,35.311C38.927,84.937,32.27,104.075,32.27,125z"/>
	<path d="M48.319,90.763h0.714l39.589,109.136h-0.357c-16.406-7.607-29.364-20.448-38.876-38.518
		c-5.469-12.364-8.203-24.61-8.203-36.738C41.186,113.705,43.563,102.411,48.319,90.763z"/>
	<path d="M125,41.187c21.162,0,39.946,7.368,56.352,22.112v0.354l-1.07-0.354c-6.656,0-11.293,4.041-13.909,12.125v3.21
		c0,4.757,3.329,12.129,9.986,22.116c3.329,6.417,4.993,13.313,4.993,20.682c0,6.185-2.972,17.715-8.917,34.6l-5.707,19.615
		c-0.475,0-3.566-8.919-9.273-26.751l-21.399-63.483h0.357c8.321,0,12.482-1.073,12.482-3.21v-1.07
		c-0.475-1.664-1.307-2.616-2.496-2.853l-23.183,1.07l-23.54-1.07c-1.188,0.713-1.783,1.779-1.783,3.207h-0.356
		c0,2.619,3.447,3.926,10.343,3.926l1.783,0.354l12.84,36.023l-18.19,54.571h-0.357L73.642,85.767v-0.354h0.357
		c8.083,0,12.125-0.952,12.125-2.853v-1.073c0-1.428-0.832-2.494-2.497-3.207l-27.106,1.07h-1.426v-0.716
		c2.377-4.28,7.965-10.46,16.763-18.545C87.79,47.485,105.503,41.187,125,41.187z"/>
	<path d="M126.07,131.774c0.476,0,3.805,8.918,9.986,26.751l16.764,45.296h-0.357c-9.273,3.092-18.546,4.638-27.819,4.638
		c-8.323,0-16.169-1.188-23.54-3.567L126.07,131.774z"/>
	<path d="M197.758,84.7h0.713c6.658,13.312,9.987,26.747,9.987,40.3c0,24.253-9.511,45.178-28.533,62.771
		c-4.518,3.808-8.797,6.896-12.839,9.276h-0.357v-0.358l29.247-85.241c1.664-6.896,2.496-12.959,2.496-18.19L197.758,84.7z"/>
</g>
</svg>
